<svg width="429" height="112" viewBox="0 0 429 112" fill="none" xmlns="http://www.w3.org/2000/svg">
<path d="M409.782 1.87851L384.986 55.6356L360.196 1.87851H340.978L372.545 70.322C374.344 74.2184 374.344 78.7142 372.545 82.6106L359.226 111.486H378.443L429 1.87851H409.782Z" fill="#FE0060"/>
<path d="M155.698 35.3865V85.0389H138.279V74.889C132.051 82.7884 122.429 86.7407 110.73 86.7407C92.0453 86.7407 80.9556 75.651 80.9556 60.0044C80.9556 44.3579 94.7784 34.1774 117.415 34.025C128.81 33.7202 135.343 33.4154 137.166 33.263C136.105 22.7829 129.572 17.4641 117.415 17.4641C108.454 17.4641 99.9448 19.745 91.8929 24.4542L84.4506 9.71701C94.626 3.33138 105.868 0.141113 118.177 0.141113C137.471 0.141113 155.703 9.25472 155.703 35.3865H155.698ZM136.862 48.3C132.457 48.7572 127.596 48.9096 121.972 48.9096C107.235 49.062 100.25 51.1905 100.25 59.6945C100.25 66.3799 105.568 70.4795 113.92 70.4795C126.529 70.4795 135.795 61.2135 136.862 48.3Z" fill="#FE0060"/>
<path d="M337.981 35.3865V85.0389H320.561V74.889C314.333 82.7885 304.712 86.7407 293.012 86.7407C274.328 86.7407 263.238 75.651 263.238 60.0044C263.238 44.3579 277.061 34.1775 299.698 34.0251C311.092 33.7203 317.625 33.4155 319.449 33.2631C318.387 22.7829 311.854 17.4641 299.698 17.4641C290.736 17.4641 282.227 19.745 274.175 24.4542L266.733 9.71702C276.914 3.33648 288.156 0.14621 300.46 0.14621C319.754 0.14621 337.986 9.25982 337.986 35.3916L337.981 35.3865ZM319.144 48.3C314.74 48.7572 309.878 48.9096 304.254 48.9096C289.517 49.062 282.532 51.1905 282.532 59.6946C282.532 66.3799 287.851 70.4795 296.202 70.4795C308.811 70.4795 318.077 61.2135 319.144 48.3Z" fill="#FE0060"/>
<path d="M1.72227 1.84799H64.5676C67.9407 1.84799 71.0345 3.82921 72.4467 6.89248C73.859 9.95575 73.3611 13.5931 71.1716 16.1585L27.1225 67.8378H71.5221V85.0338H8.67686C5.3037 85.0338 2.20995 83.0526 0.7977 79.9893C-0.614553 76.926 -0.116709 73.2887 2.07279 70.7233L46.1219 19.044H1.72227V1.84799Z" fill="#FE0060"/>
<path d="M213.804 0.141113C203.334 0.141113 193.758 4.14927 186.412 10.7483V1.87341H169.054V111.481H186.412V43.3215H186.423C186.423 42.4833 186.458 41.635 186.545 40.7764C187.759 28.6504 197.563 18.8408 209.694 17.6317C226.078 15.9959 239.789 29.707 238.153 46.0902C236.939 58.2162 227.134 68.0258 215.008 69.24C208.028 69.9359 201.541 67.8429 196.512 63.9465L186.418 76.1285C193.763 82.7275 203.339 86.7356 213.809 86.7356C236.883 86.7356 255.654 67.3146 255.654 43.4384C255.654 19.5621 236.878 0.141113 213.804 0.141113Z" fill="#FE0060"/>
</svg>
